<?xml version="1.0" encoding="utf-8"?>
<svg xmlns="http://www.w3.org/2000/svg" xmlns:xlink="http://www.w3.org/1999/xlink" style="background: rgb(238, 238, 238); display: block; position: relative; shape-rendering: auto;" width="76" height="76" preserveAspectRatio="xMidYMid" viewBox="0 0 76 76"><g transform="scale(0.30000000000000004)">


<defs><g id="id-0.21572378261385028"><!--Generator: Adobe Illustrator 21.0.0, SVG Export Plug-In . SVG Version: 6.00 Build 0)--><style type="text/css">.st113{stroke-miterlimit:10;fill:#f4e6c8;stroke:#333;stroke-width:3.5}.st114{fill:none}.st114,.st115,.st116,.st117{stroke:#333;stroke-width:3.5;stroke-miterlimit:10}.st115{fill:#e15c64}.st116{fill:#fff}.st117{fill:#f7b26a}</style><g><path class="st113" d="M83.9,26.8c0-2-1.3-3.7-3-4.4c-0.7-2.2-2.5-4-4.8-4.5c-0.5-3.1-3.2-5.4-6.4-5.4c-2.9,0-5.4,1.9-6.3,4.6 c-0.8-0.3-1.6-0.5-2.5-0.5c-0.6,0-1.2,0.1-1.8,0.3c-1.1-2-3.3-3.4-5.8-3.4c-0.8,0-1.5,0.1-2.2,0.4c-1-2.2-3.3-3.8-5.9-3.8 c-3.5,0-6.3,2.7-6.5,6.1c-0.9-0.4-1.9-0.7-2.9-0.7c-0.6,0-1.1,0.1-1.6,0.2c-1.2-1.4-3-2.3-4.9-2.3c-3.6,0-6.6,2.9-6.6,6.6 c0,0.3,0,0.7,0.1,1c-1.4,0-2.7,0.5-3.8,1.3c-1.6,1.2-2.7,3.1-2.7,5.3c0,2.2,1,4.1,2.7,5.3c0.7,0.5,1.6,0.9,2.5,1.1h13.4h34.1h11.6 c0.4-0.8,0.7-1.8,0.8-2.8C82.7,30.4,83.9,28.7,83.9,26.8z" data-fill="c1" data-stroke="c2" style="fill: rgb(244, 230, 200); stroke: rgb(51, 51, 51);"></path><path class="st114" d="M42.6,29.4c-1.9-1.9-1.8-5.5,0.2-7.3s5.6-1.5,7.3,0.6c1.2,1.5,1.1,4.1-0.3,5.5" data-stroke="c2" style="stroke: rgb(51, 51, 51);"></path><path class="st114" d="M51,25c0.9-1.5,2.8-2.2,4.5-1.7c1.6,0.5,2.9,2.2,2.8,3.9" data-stroke="c2" style="stroke: rgb(51, 51, 51);"></path><path class="st113" d="M76,17.9c-0.9,0-7.3-0.5-7.2,6" data-fill="c1" data-stroke="c2" style="fill: rgb(244, 230, 200); stroke: rgb(51, 51, 51);"></path></g><g><path class="st115" d="M36.6,90h-7c-1.5,0-2.7-1.1-2.9-2.6l-5.5-53.6h11.9L36.6,90z" data-fill="c3" data-stroke="c2" style="fill: rgb(225, 92, 100); stroke: rgb(51, 51, 51);"></path><polygon class="st116" points="46.2,90 36.6,90 33.2,33.8 45,33.8 	" data-fill="c4" data-stroke="c2" style="fill: rgb(255, 255, 255); stroke: rgb(51, 51, 51);"></polygon><polygon class="st115" points="55.8,90 46.2,90 45,33.8 56.9,33.8 	" data-fill="c3" data-stroke="c2" style="fill: rgb(225, 92, 100); stroke: rgb(51, 51, 51);"></polygon><polygon class="st116" points="65.3,90 55.8,90 56.9,33.8 68.8,33.8 	" data-fill="c4" data-stroke="c2" style="fill: rgb(255, 255, 255); stroke: rgb(51, 51, 51);"></polygon><path class="st115" d="M72.3,90h-7l3.4-56.2h11.9l-5.5,53.6C75,88.9,73.8,90,72.3,90z" data-fill="c3" data-stroke="c2" style="fill: rgb(225, 92, 100); stroke: rgb(51, 51, 51);"></path><path class="st117" d="M56.9,66.7h-12c-2.8,0-5-2.2-5-5v-4.5c0-2.8,2.2-5,5-5h12c2.8,0,5,2.2,5,5v4.5 C61.9,64.5,59.7,66.7,56.9,66.7z" data-fill="c5" data-stroke="c2" style="fill: rgb(247, 178, 106); stroke: rgb(51, 51, 51);"></path></g><metadata xmlns:d="https://loading.io/stock/"><d:name>popcorn</d:name><d:tags>popcorn,movie,theatre</d:tags><d:license>by</d:license><d:slug>u998bl</d:slug></metadata></g></defs>

<!-- Generator: Adobe Illustrator 21.0.0, SVG Export Plug-In . SVG Version: 6.00 Build 0)  -->



















<g data-idx="0" data-dup="" dx="-128" dy="-128" style="transform-origin: -58.5047px 39.4938px; animation: 1s linear 0s infinite normal forwards running beat-6dcda100-e9d8-4e57-97c7-fcd8ccd2dcbd;"><g transform="translate(-128,-128)"><ellipse transform="matrix(0.7249 -0.6888 0.6888 0.7249 -96.2592 93.9447)" fill="#B3B4B4" cx="69.5" cy="167.5" rx="5.5" ry="5.5" data-fill="c6" style="fill: rgb(179, 180, 180);"></ellipse></g></g><g data-idx="0" data-dup="" dx="128" dy="-128" style="transform-origin: 197.495px 39.4938px; animation: 1s linear 0s infinite normal forwards running beat-6dcda100-e9d8-4e57-97c7-fcd8ccd2dcbd;"><g transform="translate(128,-128)"><ellipse transform="matrix(0.7249 -0.6888 0.6888 0.7249 -96.2592 93.9447)" fill="#B3B4B4" cx="69.5" cy="167.5" rx="5.5" ry="5.5" data-fill="c6" style="fill: rgb(179, 180, 180);"></ellipse></g></g><g data-idx="1" data-dup="" dx="-128" dy="-128" style="transform-origin: 111.489px -55.5005px; animation: 1s linear 0s infinite normal forwards running beat-6dcda100-e9d8-4e57-97c7-fcd8ccd2dcbd;"><g transform="translate(-128,-128)"><ellipse transform="matrix(0.7249 -0.6888 0.6888 0.7249 15.9378 184.9119)" fill="#B3B4B4" cx="239.5" cy="72.5" rx="5.5" ry="5.5" data-fill="c6" style="fill: rgb(179, 180, 180);"></ellipse></g></g><g data-idx="1" data-dup="" dx="128" dy="-128" style="transform-origin: 367.489px -55.5005px; animation: 1s linear 0s infinite normal forwards running beat-6dcda100-e9d8-4e57-97c7-fcd8ccd2dcbd;"><g transform="translate(128,-128)"><ellipse transform="matrix(0.7249 -0.6888 0.6888 0.7249 15.9378 184.9119)" fill="#B3B4B4" cx="239.5" cy="72.5" rx="5.5" ry="5.5" data-fill="c6" style="fill: rgb(179, 180, 180);"></ellipse></g></g><g data-idx="2" data-dup="" dx="-128" dy="-128" style="transform-origin: 73.5px -2.5px; animation: 1s linear 0s infinite normal forwards running beat-6dcda100-e9d8-4e57-97c7-fcd8ccd2dcbd;"><g transform="translate(-128,-128)"><g>
	
		<line fill="none" stroke="#B3B4B5" stroke-width="4" stroke-linecap="round" stroke-linejoin="round" stroke-miterlimit="10" x1="194" y1="125.5" x2="209" y2="125.5" data-stroke="c7" style="stroke: rgb(179, 180, 181);"></line>
	
		<line fill="none" stroke="#B3B4B5" stroke-width="4" stroke-linecap="round" stroke-linejoin="round" stroke-miterlimit="10" x1="201.5" y1="133" x2="201.5" y2="118" data-stroke="c7" style="stroke: rgb(179, 180, 181);"></line>
</g></g></g><g data-idx="2" data-dup="" dx="128" dy="-128" style="transform-origin: 329.5px -2.5px; animation: 1s linear 0s infinite normal forwards running beat-6dcda100-e9d8-4e57-97c7-fcd8ccd2dcbd;"><g transform="translate(128,-128)"><g>
	
		<line fill="none" stroke="#B3B4B5" stroke-width="4" stroke-linecap="round" stroke-linejoin="round" stroke-miterlimit="10" x1="194" y1="125.5" x2="209" y2="125.5" data-stroke="c7" style="stroke: rgb(179, 180, 181);"></line>
	
		<line fill="none" stroke="#B3B4B5" stroke-width="4" stroke-linecap="round" stroke-linejoin="round" stroke-miterlimit="10" x1="201.5" y1="133" x2="201.5" y2="118" data-stroke="c7" style="stroke: rgb(179, 180, 181);"></line>
</g></g></g><g data-idx="3" data-dup="" dx="-128" dy="-128" style="transform-origin: 64px 116px; animation: 1s linear 0s infinite normal forwards running beat-6dcda100-e9d8-4e57-97c7-fcd8ccd2dcbd;"><g transform="translate(-128,-128)"><g>
	
		<line fill="none" stroke="#B3B4B5" stroke-width="4" stroke-linecap="round" stroke-linejoin="round" stroke-miterlimit="10" x1="186" y1="244" x2="198" y2="244" data-stroke="c7" style="stroke: rgb(179, 180, 181);"></line>
	
		<line fill="none" stroke="#B3B4B5" stroke-width="4" stroke-linecap="round" stroke-linejoin="round" stroke-miterlimit="10" x1="192" y1="250" x2="192" y2="238" data-stroke="c7" style="stroke: rgb(179, 180, 181);"></line>
</g></g></g><g data-idx="3" data-dup="" dx="128" dy="-128" style="transform-origin: 320px 116px; animation: 1s linear 0s infinite normal forwards running beat-6dcda100-e9d8-4e57-97c7-fcd8ccd2dcbd;"><g transform="translate(128,-128)"><g>
	
		<line fill="none" stroke="#B3B4B5" stroke-width="4" stroke-linecap="round" stroke-linejoin="round" stroke-miterlimit="10" x1="186" y1="244" x2="198" y2="244" data-stroke="c7" style="stroke: rgb(179, 180, 181);"></line>
	
		<line fill="none" stroke="#B3B4B5" stroke-width="4" stroke-linecap="round" stroke-linejoin="round" stroke-miterlimit="10" x1="192" y1="250" x2="192" y2="238" data-stroke="c7" style="stroke: rgb(179, 180, 181);"></line>
</g></g></g><g data-idx="4" data-dup="" dx="-128" dy="-128" style="transform-origin: -107.5px -81.5px; animation: 1s linear 0s infinite normal forwards running beat-6dcda100-e9d8-4e57-97c7-fcd8ccd2dcbd;"><g transform="translate(-128,-128)"><g>
	
		<line fill="none" stroke="#B3B4B5" stroke-width="4" stroke-linecap="round" stroke-linejoin="round" stroke-miterlimit="10" x1="12" y1="46.5" x2="29" y2="46.5" data-stroke="c7" style="stroke: rgb(179, 180, 181);"></line>
	
		<line fill="none" stroke="#B3B4B5" stroke-width="4" stroke-linecap="round" stroke-linejoin="round" stroke-miterlimit="10" x1="20.5" y1="55" x2="20.5" y2="38" data-stroke="c7" style="stroke: rgb(179, 180, 181);"></line>
</g></g></g><g data-idx="4" data-dup="" dx="128" dy="-128" style="transform-origin: 148.5px -81.5px; animation: 1s linear 0s infinite normal forwards running beat-6dcda100-e9d8-4e57-97c7-fcd8ccd2dcbd;"><g transform="translate(128,-128)"><g>
	
		<line fill="none" stroke="#B3B4B5" stroke-width="4" stroke-linecap="round" stroke-linejoin="round" stroke-miterlimit="10" x1="12" y1="46.5" x2="29" y2="46.5" data-stroke="c7" style="stroke: rgb(179, 180, 181);"></line>
	
		<line fill="none" stroke="#B3B4B5" stroke-width="4" stroke-linecap="round" stroke-linejoin="round" stroke-miterlimit="10" x1="20.5" y1="55" x2="20.5" y2="38" data-stroke="c7" style="stroke: rgb(179, 180, 181);"></line>
</g></g></g><g data-idx="5" data-dup="" dx="-128" dy="-128" style="transform-origin: 9.52531px -55.8316px; animation: 1s linear 0s infinite normal forwards running beat-6dcda100-e9d8-4e57-97c7-fcd8ccd2dcbd;"><g transform="translate(-128,-128)"><ellipse transform="matrix(0.4903 -0.8715 0.8715 0.4903 7.2038 156.6452)" fill="#B3B4B4" cx="137.531" cy="72.163" rx="6.525" ry="6.525" data-fill="c6" style="fill: rgb(179, 180, 180);"></ellipse></g></g><g data-idx="5" data-dup="" dx="128" dy="-128" style="transform-origin: 265.525px -55.8316px; animation: 1s linear 0s infinite normal forwards running beat-6dcda100-e9d8-4e57-97c7-fcd8ccd2dcbd;"><g transform="translate(128,-128)"><ellipse transform="matrix(0.4903 -0.8715 0.8715 0.4903 7.2038 156.6452)" fill="#B3B4B4" cx="137.531" cy="72.163" rx="6.525" ry="6.525" data-fill="c6" style="fill: rgb(179, 180, 180);"></ellipse></g></g><g data-idx="6" data-dup="" dx="-128" dy="-128" style="transform-origin: 15.4918px 88.4925px; animation: 1s linear 0s infinite normal forwards running beat-6dcda100-e9d8-4e57-97c7-fcd8ccd2dcbd;"><g transform="translate(-128,-128)"><ellipse transform="matrix(0.7249 -0.6888 0.6888 0.7249 -109.6566 158.3945)" fill="#B3B4B4" cx="143.5" cy="216.5" rx="5.5" ry="5.5" data-fill="c6" style="fill: rgb(179, 180, 180);"></ellipse></g></g><g data-idx="6" data-dup="" dx="128" dy="-128" style="transform-origin: 271.492px 88.4925px; animation: 1s linear 0s infinite normal forwards running beat-6dcda100-e9d8-4e57-97c7-fcd8ccd2dcbd;"><g transform="translate(128,-128)"><ellipse transform="matrix(0.7249 -0.6888 0.6888 0.7249 -109.6566 158.3945)" fill="#B3B4B4" cx="143.5" cy="216.5" rx="5.5" ry="5.5" data-fill="c6" style="fill: rgb(179, 180, 180);"></ellipse></g></g><g data-idx="7" data-dup="" dx="-128" dy="-128" style="transform-origin: -37.0041px -92.0005px; animation: 1s linear 0s infinite normal forwards running beat-6dcda100-e9d8-4e57-97c7-fcd8ccd2dcbd;"><g transform="translate(-128,-128)"><ellipse transform="matrix(0.7249 -0.6888 0.6888 0.7249 0.2332 72.5839)" fill="#B3B4B4" cx="91" cy="36" rx="4" ry="4" data-fill="c6" style="fill: rgb(179, 180, 180);"></ellipse></g></g><g data-idx="7" data-dup="" dx="128" dy="-128" style="transform-origin: 218.996px -92.0005px; animation: 1s linear 0s infinite normal forwards running beat-6dcda100-e9d8-4e57-97c7-fcd8ccd2dcbd;"><g transform="translate(128,-128)"><ellipse transform="matrix(0.7249 -0.6888 0.6888 0.7249 0.2332 72.5839)" fill="#B3B4B4" cx="91" cy="36" rx="4" ry="4" data-fill="c6" style="fill: rgb(179, 180, 180);"></ellipse></g></g><g data-idx="8" data-dup="" dx="-128" dy="-128" style="transform-origin: 120.988px 20.9965px; animation: 1s linear 0s infinite normal forwards running beat-6dcda100-e9d8-4e57-97c7-fcd8ccd2dcbd;"><g transform="translate(-128,-128)"><ellipse transform="matrix(0.7249 -0.6888 0.6888 0.7249 -34.1432 212.4976)" fill="#B3B4B4" cx="249" cy="149" rx="4" ry="4" data-fill="c6" style="fill: rgb(179, 180, 180);"></ellipse></g></g><g data-idx="8" data-dup="" dx="128" dy="-128" style="transform-origin: 376.988px 20.9965px; animation: 1s linear 0s infinite normal forwards running beat-6dcda100-e9d8-4e57-97c7-fcd8ccd2dcbd;"><g transform="translate(128,-128)"><ellipse transform="matrix(0.7249 -0.6888 0.6888 0.7249 -34.1432 212.4976)" fill="#B3B4B4" cx="249" cy="149" rx="4" ry="4" data-fill="c6" style="fill: rgb(179, 180, 180);"></ellipse></g></g><g data-idx="9" data-dup="" dx="-128" dy="-128" style="transform-origin: -121.003px 111.99px; animation: 1s linear 0s infinite normal forwards running beat-6dcda100-e9d8-4e57-97c7-fcd8ccd2dcbd;"><g transform="translate(-128,-128)"><ellipse transform="matrix(0.7249 -0.6888 0.6888 0.7249 -163.3891 70.8358)" fill="#B3B4B4" cx="7" cy="240" rx="4" ry="4" data-fill="c6" style="fill: rgb(179, 180, 180);"></ellipse></g></g><g data-idx="9" data-dup="" dx="128" dy="-128" style="transform-origin: 134.997px 111.99px; animation: 1s linear 0s infinite normal forwards running beat-6dcda100-e9d8-4e57-97c7-fcd8ccd2dcbd;"><g transform="translate(128,-128)"><ellipse transform="matrix(0.7249 -0.6888 0.6888 0.7249 -163.3891 70.8358)" fill="#B3B4B4" cx="7" cy="240" rx="4" ry="4" data-fill="c6" style="fill: rgb(179, 180, 180);"></ellipse></g></g><g data-idx="10" data-dup="" dx="-128" dy="-128" style="transform-origin: 5.05856px 11.0338px; animation: 1s linear 0s infinite normal forwards running beat-6dcda100-e9d8-4e57-97c7-fcd8ccd2dcbd;"><g transform="translate(-128,-128)"><g transform="matrix(0.9912 0.1325 -0.1325 0.9912 19.5946 -16.4002) translate(133,138.9995) scale(0.6222222222222222)"><g data-icon="" transform="scale(0.9)">  <use xlink:href="#id-0.21572378261385028" x="-50" y="-50"></use>
</g></g></g></g><g data-idx="10" data-dup="" dx="128" dy="-128" style="transform-origin: 261.059px 11.0338px; animation: 1s linear 0s infinite normal forwards running beat-6dcda100-e9d8-4e57-97c7-fcd8ccd2dcbd;"><g transform="translate(128,-128)"><g transform="matrix(0.9912 0.1325 -0.1325 0.9912 19.5946 -16.4002) translate(133,138.9995) scale(0.6222222222222222)"><g data-icon="" transform="scale(0.9)">  <use xlink:href="#id-0.21572378261385028" x="-50" y="-50"></use>
</g></g></g></g><g data-idx="11" data-dup="" dx="-128" dy="-128" style="transform-origin: 57.1209px -85.7299px; animation: 1s linear 0s infinite normal forwards running beat-6dcda100-e9d8-4e57-97c7-fcd8ccd2dcbd;"><g transform="translate(-128,-128)"><g transform="matrix(0.8102 -0.5862 0.5862 0.8102 10.3558 116.5189) translate(185.074,42.271) scale(0.3916444444444444)"><g data-icon="" transform="scale(0.9)">  <use xlink:href="#id-0.21572378261385028" x="-50" y="-50"></use>
</g></g></g></g><g data-idx="11" data-dup="" dx="128" dy="-128" style="transform-origin: 313.121px -85.7299px; animation: 1s linear 0s infinite normal forwards running beat-6dcda100-e9d8-4e57-97c7-fcd8ccd2dcbd;"><g transform="translate(128,-128)"><g transform="matrix(0.8102 -0.5862 0.5862 0.8102 10.3558 116.5189) translate(185.074,42.271) scale(0.3916444444444444)"><g data-icon="" transform="scale(0.9)">  <use xlink:href="#id-0.21572378261385028" x="-50" y="-50"></use>
</g></g></g></g><g data-idx="12" data-dup="" dx="-128" dy="-128" style="transform-origin: 96.7247px 65.4492px; animation: 1s linear 0s infinite normal forwards running beat-6dcda100-e9d8-4e57-97c7-fcd8ccd2dcbd;"><g transform="translate(-128,-128)"><g transform="matrix(0.7153 0.6988 -0.6988 0.7153 199.1367 -101.9661) translate(224.712,193.41799999999998) scale(0.3647555555555556)"><g data-icon="" transform="scale(0.9)">  <use xlink:href="#id-0.21572378261385028" x="-50" y="-50"></use>
</g></g></g></g><g data-idx="12" data-dup="" dx="128" dy="-128" style="transform-origin: 352.725px 65.4492px; animation: 1s linear 0s infinite normal forwards running beat-6dcda100-e9d8-4e57-97c7-fcd8ccd2dcbd;"><g transform="translate(128,-128)"><g transform="matrix(0.7153 0.6988 -0.6988 0.7153 199.1367 -101.9661) translate(224.712,193.41799999999998) scale(0.3647555555555556)"><g data-icon="" transform="scale(0.9)">  <use xlink:href="#id-0.21572378261385028" x="-50" y="-50"></use>
</g></g></g></g><g data-idx="13" data-dup="" dx="-128" dy="-128" style="transform-origin: -81.3772px -21.2432px; animation: 1s linear 0s infinite normal forwards running beat-6dcda100-e9d8-4e57-97c7-fcd8ccd2dcbd;"><g transform="translate(-128,-128)"><g transform="matrix(0.7812 0.6242 -0.6242 0.7812 76.8196 -5.7423) translate(46.602000000000004,106.7265) scale(0.3879111111111111)"><g data-icon="" transform="scale(0.9)">  <use xlink:href="#id-0.21572378261385028" x="-50" y="-50"></use>
</g></g></g></g><g data-idx="13" data-dup="" dx="128" dy="-128" style="transform-origin: 174.623px -21.2432px; animation: 1s linear 0s infinite normal forwards running beat-6dcda100-e9d8-4e57-97c7-fcd8ccd2dcbd;"><g transform="translate(128,-128)"><g transform="matrix(0.7812 0.6242 -0.6242 0.7812 76.8196 -5.7423) translate(46.602000000000004,106.7265) scale(0.3879111111111111)"><g data-icon="" transform="scale(0.9)">  <use xlink:href="#id-0.21572378261385028" x="-50" y="-50"></use>
</g></g></g></g><g data-idx="14" data-dup="" dx="-128" dy="-128" style="transform-origin: -58.7506px 101.619px; animation: 1s linear 0s infinite normal forwards running beat-6dcda100-e9d8-4e57-97c7-fcd8ccd2dcbd;"><g transform="translate(-128,-128)"><g transform="matrix(0.7381 -0.6747 0.6747 0.7381 -136.8065 106.8361) translate(69.2025,229.6265) scale(0.5011777777777778)"><g data-icon="" transform="scale(0.9)">  <use xlink:href="#id-0.21572378261385028" x="-50" y="-50"></use>
</g></g></g></g><g data-idx="14" data-dup="" dx="128" dy="-128" style="transform-origin: 197.249px 101.619px; animation: 1s linear 0s infinite normal forwards running beat-6dcda100-e9d8-4e57-97c7-fcd8ccd2dcbd;"><g transform="translate(128,-128)"><g transform="matrix(0.7381 -0.6747 0.6747 0.7381 -136.8065 106.8361) translate(69.2025,229.6265) scale(0.5011777777777778)"><g data-icon="" transform="scale(0.9)">  <use xlink:href="#id-0.21572378261385028" x="-50" y="-50"></use>
</g></g></g></g><g data-idx="0" data-dup="" dx="-128" dy="128" style="transform-origin: -58.5047px 295.494px; animation: 1s linear 0s infinite normal forwards running beat-6dcda100-e9d8-4e57-97c7-fcd8ccd2dcbd;"><g transform="translate(-128,128)"><ellipse transform="matrix(0.7249 -0.6888 0.6888 0.7249 -96.2592 93.9447)" fill="#B3B4B4" cx="69.5" cy="167.5" rx="5.5" ry="5.5" data-fill="c6" style="fill: rgb(179, 180, 180);"></ellipse></g></g><g data-idx="0" data-dup="" dx="128" dy="128" style="transform-origin: 197.495px 295.494px; animation: 1s linear 0s infinite normal forwards running beat-6dcda100-e9d8-4e57-97c7-fcd8ccd2dcbd;"><g transform="translate(128,128)"><ellipse transform="matrix(0.7249 -0.6888 0.6888 0.7249 -96.2592 93.9447)" fill="#B3B4B4" cx="69.5" cy="167.5" rx="5.5" ry="5.5" data-fill="c6" style="fill: rgb(179, 180, 180);"></ellipse></g></g><g data-idx="1" data-dup="" dx="-128" dy="128" style="transform-origin: 111.489px 200.5px; animation: 1s linear 0s infinite normal forwards running beat-6dcda100-e9d8-4e57-97c7-fcd8ccd2dcbd;"><g transform="translate(-128,128)"><ellipse transform="matrix(0.7249 -0.6888 0.6888 0.7249 15.9378 184.9119)" fill="#B3B4B4" cx="239.5" cy="72.5" rx="5.5" ry="5.5" data-fill="c6" style="fill: rgb(179, 180, 180);"></ellipse></g></g><g data-idx="1" data-dup="" dx="128" dy="128" style="transform-origin: 367.489px 200.5px; animation: 1s linear 0s infinite normal forwards running beat-6dcda100-e9d8-4e57-97c7-fcd8ccd2dcbd;"><g transform="translate(128,128)"><ellipse transform="matrix(0.7249 -0.6888 0.6888 0.7249 15.9378 184.9119)" fill="#B3B4B4" cx="239.5" cy="72.5" rx="5.5" ry="5.5" data-fill="c6" style="fill: rgb(179, 180, 180);"></ellipse></g></g><g data-idx="2" data-dup="" dx="-128" dy="128" style="transform-origin: 73.5px 253.5px; animation: 1s linear 0s infinite normal forwards running beat-6dcda100-e9d8-4e57-97c7-fcd8ccd2dcbd;"><g transform="translate(-128,128)"><g>
	
		<line fill="none" stroke="#B3B4B5" stroke-width="4" stroke-linecap="round" stroke-linejoin="round" stroke-miterlimit="10" x1="194" y1="125.5" x2="209" y2="125.5" data-stroke="c7" style="stroke: rgb(179, 180, 181);"></line>
	
		<line fill="none" stroke="#B3B4B5" stroke-width="4" stroke-linecap="round" stroke-linejoin="round" stroke-miterlimit="10" x1="201.5" y1="133" x2="201.5" y2="118" data-stroke="c7" style="stroke: rgb(179, 180, 181);"></line>
</g></g></g><g data-idx="2" data-dup="" dx="128" dy="128" style="transform-origin: 329.5px 253.5px; animation: 1s linear 0s infinite normal forwards running beat-6dcda100-e9d8-4e57-97c7-fcd8ccd2dcbd;"><g transform="translate(128,128)"><g>
	
		<line fill="none" stroke="#B3B4B5" stroke-width="4" stroke-linecap="round" stroke-linejoin="round" stroke-miterlimit="10" x1="194" y1="125.5" x2="209" y2="125.5" data-stroke="c7" style="stroke: rgb(179, 180, 181);"></line>
	
		<line fill="none" stroke="#B3B4B5" stroke-width="4" stroke-linecap="round" stroke-linejoin="round" stroke-miterlimit="10" x1="201.5" y1="133" x2="201.5" y2="118" data-stroke="c7" style="stroke: rgb(179, 180, 181);"></line>
</g></g></g><g data-idx="3" data-dup="" dx="-128" dy="128" style="transform-origin: 64px 372px; animation: 1s linear 0s infinite normal forwards running beat-6dcda100-e9d8-4e57-97c7-fcd8ccd2dcbd;"><g transform="translate(-128,128)"><g>
	
		<line fill="none" stroke="#B3B4B5" stroke-width="4" stroke-linecap="round" stroke-linejoin="round" stroke-miterlimit="10" x1="186" y1="244" x2="198" y2="244" data-stroke="c7" style="stroke: rgb(179, 180, 181);"></line>
	
		<line fill="none" stroke="#B3B4B5" stroke-width="4" stroke-linecap="round" stroke-linejoin="round" stroke-miterlimit="10" x1="192" y1="250" x2="192" y2="238" data-stroke="c7" style="stroke: rgb(179, 180, 181);"></line>
</g></g></g><g data-idx="3" data-dup="" dx="128" dy="128" style="transform-origin: 320px 372px; animation: 1s linear 0s infinite normal forwards running beat-6dcda100-e9d8-4e57-97c7-fcd8ccd2dcbd;"><g transform="translate(128,128)"><g>
	
		<line fill="none" stroke="#B3B4B5" stroke-width="4" stroke-linecap="round" stroke-linejoin="round" stroke-miterlimit="10" x1="186" y1="244" x2="198" y2="244" data-stroke="c7" style="stroke: rgb(179, 180, 181);"></line>
	
		<line fill="none" stroke="#B3B4B5" stroke-width="4" stroke-linecap="round" stroke-linejoin="round" stroke-miterlimit="10" x1="192" y1="250" x2="192" y2="238" data-stroke="c7" style="stroke: rgb(179, 180, 181);"></line>
</g></g></g><g data-idx="4" data-dup="" dx="-128" dy="128" style="transform-origin: -107.5px 174.5px; animation: 1s linear 0s infinite normal forwards running beat-6dcda100-e9d8-4e57-97c7-fcd8ccd2dcbd;"><g transform="translate(-128,128)"><g>
	
		<line fill="none" stroke="#B3B4B5" stroke-width="4" stroke-linecap="round" stroke-linejoin="round" stroke-miterlimit="10" x1="12" y1="46.5" x2="29" y2="46.5" data-stroke="c7" style="stroke: rgb(179, 180, 181);"></line>
	
		<line fill="none" stroke="#B3B4B5" stroke-width="4" stroke-linecap="round" stroke-linejoin="round" stroke-miterlimit="10" x1="20.5" y1="55" x2="20.5" y2="38" data-stroke="c7" style="stroke: rgb(179, 180, 181);"></line>
</g></g></g><g data-idx="4" data-dup="" dx="128" dy="128" style="transform-origin: 148.5px 174.5px; animation: 1s linear 0s infinite normal forwards running beat-6dcda100-e9d8-4e57-97c7-fcd8ccd2dcbd;"><g transform="translate(128,128)"><g>
	
		<line fill="none" stroke="#B3B4B5" stroke-width="4" stroke-linecap="round" stroke-linejoin="round" stroke-miterlimit="10" x1="12" y1="46.5" x2="29" y2="46.5" data-stroke="c7" style="stroke: rgb(179, 180, 181);"></line>
	
		<line fill="none" stroke="#B3B4B5" stroke-width="4" stroke-linecap="round" stroke-linejoin="round" stroke-miterlimit="10" x1="20.5" y1="55" x2="20.5" y2="38" data-stroke="c7" style="stroke: rgb(179, 180, 181);"></line>
</g></g></g><g data-idx="5" data-dup="" dx="-128" dy="128" style="transform-origin: 9.52531px 200.168px; animation: 1s linear 0s infinite normal forwards running beat-6dcda100-e9d8-4e57-97c7-fcd8ccd2dcbd;"><g transform="translate(-128,128)"><ellipse transform="matrix(0.4903 -0.8715 0.8715 0.4903 7.2038 156.6452)" fill="#B3B4B4" cx="137.531" cy="72.163" rx="6.525" ry="6.525" data-fill="c6" style="fill: rgb(179, 180, 180);"></ellipse></g></g><g data-idx="5" data-dup="" dx="128" dy="128" style="transform-origin: 265.525px 200.168px; animation: 1s linear 0s infinite normal forwards running beat-6dcda100-e9d8-4e57-97c7-fcd8ccd2dcbd;"><g transform="translate(128,128)"><ellipse transform="matrix(0.4903 -0.8715 0.8715 0.4903 7.2038 156.6452)" fill="#B3B4B4" cx="137.531" cy="72.163" rx="6.525" ry="6.525" data-fill="c6" style="fill: rgb(179, 180, 180);"></ellipse></g></g><g data-idx="6" data-dup="" dx="-128" dy="128" style="transform-origin: 15.4918px 344.493px; animation: 1s linear 0s infinite normal forwards running beat-6dcda100-e9d8-4e57-97c7-fcd8ccd2dcbd;"><g transform="translate(-128,128)"><ellipse transform="matrix(0.7249 -0.6888 0.6888 0.7249 -109.6566 158.3945)" fill="#B3B4B4" cx="143.5" cy="216.5" rx="5.5" ry="5.5" data-fill="c6" style="fill: rgb(179, 180, 180);"></ellipse></g></g><g data-idx="6" data-dup="" dx="128" dy="128" style="transform-origin: 271.492px 344.493px; animation: 1s linear 0s infinite normal forwards running beat-6dcda100-e9d8-4e57-97c7-fcd8ccd2dcbd;"><g transform="translate(128,128)"><ellipse transform="matrix(0.7249 -0.6888 0.6888 0.7249 -109.6566 158.3945)" fill="#B3B4B4" cx="143.5" cy="216.5" rx="5.5" ry="5.5" data-fill="c6" style="fill: rgb(179, 180, 180);"></ellipse></g></g><g data-idx="7" data-dup="" dx="-128" dy="128" style="transform-origin: -37.0041px 163.999px; animation: 1s linear 0s infinite normal forwards running beat-6dcda100-e9d8-4e57-97c7-fcd8ccd2dcbd;"><g transform="translate(-128,128)"><ellipse transform="matrix(0.7249 -0.6888 0.6888 0.7249 0.2332 72.5839)" fill="#B3B4B4" cx="91" cy="36" rx="4" ry="4" data-fill="c6" style="fill: rgb(179, 180, 180);"></ellipse></g></g><g data-idx="7" data-dup="" dx="128" dy="128" style="transform-origin: 218.996px 163.999px; animation: 1s linear 0s infinite normal forwards running beat-6dcda100-e9d8-4e57-97c7-fcd8ccd2dcbd;"><g transform="translate(128,128)"><ellipse transform="matrix(0.7249 -0.6888 0.6888 0.7249 0.2332 72.5839)" fill="#B3B4B4" cx="91" cy="36" rx="4" ry="4" data-fill="c6" style="fill: rgb(179, 180, 180);"></ellipse></g></g><g data-idx="8" data-dup="" dx="-128" dy="128" style="transform-origin: 120.988px 276.996px; animation: 1s linear 0s infinite normal forwards running beat-6dcda100-e9d8-4e57-97c7-fcd8ccd2dcbd;"><g transform="translate(-128,128)"><ellipse transform="matrix(0.7249 -0.6888 0.6888 0.7249 -34.1432 212.4976)" fill="#B3B4B4" cx="249" cy="149" rx="4" ry="4" data-fill="c6" style="fill: rgb(179, 180, 180);"></ellipse></g></g><g data-idx="8" data-dup="" dx="128" dy="128" style="transform-origin: 376.988px 276.996px; animation: 1s linear 0s infinite normal forwards running beat-6dcda100-e9d8-4e57-97c7-fcd8ccd2dcbd;"><g transform="translate(128,128)"><ellipse transform="matrix(0.7249 -0.6888 0.6888 0.7249 -34.1432 212.4976)" fill="#B3B4B4" cx="249" cy="149" rx="4" ry="4" data-fill="c6" style="fill: rgb(179, 180, 180);"></ellipse></g></g><g data-idx="9" data-dup="" dx="-128" dy="128" style="transform-origin: -121.003px 367.99px; animation: 1s linear 0s infinite normal forwards running beat-6dcda100-e9d8-4e57-97c7-fcd8ccd2dcbd;"><g transform="translate(-128,128)"><ellipse transform="matrix(0.7249 -0.6888 0.6888 0.7249 -163.3891 70.8358)" fill="#B3B4B4" cx="7" cy="240" rx="4" ry="4" data-fill="c6" style="fill: rgb(179, 180, 180);"></ellipse></g></g><g data-idx="9" data-dup="" dx="128" dy="128" style="transform-origin: 134.997px 367.99px; animation: 1s linear 0s infinite normal forwards running beat-6dcda100-e9d8-4e57-97c7-fcd8ccd2dcbd;"><g transform="translate(128,128)"><ellipse transform="matrix(0.7249 -0.6888 0.6888 0.7249 -163.3891 70.8358)" fill="#B3B4B4" cx="7" cy="240" rx="4" ry="4" data-fill="c6" style="fill: rgb(179, 180, 180);"></ellipse></g></g><g data-idx="10" data-dup="" dx="-128" dy="128" style="transform-origin: 5.05856px 267.034px; animation: 1s linear 0s infinite normal forwards running beat-6dcda100-e9d8-4e57-97c7-fcd8ccd2dcbd;"><g transform="translate(-128,128)"><g transform="matrix(0.9912 0.1325 -0.1325 0.9912 19.5946 -16.4002) translate(133,138.9995) scale(0.6222222222222222)"><g data-icon="" transform="scale(0.9)">  <use xlink:href="#id-0.21572378261385028" x="-50" y="-50"></use>
</g></g></g></g><g data-idx="10" data-dup="" dx="128" dy="128" style="transform-origin: 261.059px 267.034px; animation: 1s linear 0s infinite normal forwards running beat-6dcda100-e9d8-4e57-97c7-fcd8ccd2dcbd;"><g transform="translate(128,128)"><g transform="matrix(0.9912 0.1325 -0.1325 0.9912 19.5946 -16.4002) translate(133,138.9995) scale(0.6222222222222222)"><g data-icon="" transform="scale(0.9)">  <use xlink:href="#id-0.21572378261385028" x="-50" y="-50"></use>
</g></g></g></g><g data-idx="11" data-dup="" dx="-128" dy="128" style="transform-origin: 57.1209px 170.27px; animation: 1s linear 0s infinite normal forwards running beat-6dcda100-e9d8-4e57-97c7-fcd8ccd2dcbd;"><g transform="translate(-128,128)"><g transform="matrix(0.8102 -0.5862 0.5862 0.8102 10.3558 116.5189) translate(185.074,42.271) scale(0.3916444444444444)"><g data-icon="" transform="scale(0.9)">  <use xlink:href="#id-0.21572378261385028" x="-50" y="-50"></use>
</g></g></g></g><g data-idx="11" data-dup="" dx="128" dy="128" style="transform-origin: 313.121px 170.27px; animation: 1s linear 0s infinite normal forwards running beat-6dcda100-e9d8-4e57-97c7-fcd8ccd2dcbd;"><g transform="translate(128,128)"><g transform="matrix(0.8102 -0.5862 0.5862 0.8102 10.3558 116.5189) translate(185.074,42.271) scale(0.3916444444444444)"><g data-icon="" transform="scale(0.9)">  <use xlink:href="#id-0.21572378261385028" x="-50" y="-50"></use>
</g></g></g></g><g data-idx="12" data-dup="" dx="-128" dy="128" style="transform-origin: 96.7247px 321.449px; animation: 1s linear 0s infinite normal forwards running beat-6dcda100-e9d8-4e57-97c7-fcd8ccd2dcbd;"><g transform="translate(-128,128)"><g transform="matrix(0.7153 0.6988 -0.6988 0.7153 199.1367 -101.9661) translate(224.712,193.41799999999998) scale(0.3647555555555556)"><g data-icon="" transform="scale(0.9)">  <use xlink:href="#id-0.21572378261385028" x="-50" y="-50"></use>
</g></g></g></g><g data-idx="12" data-dup="" dx="128" dy="128" style="transform-origin: 352.725px 321.449px; animation: 1s linear 0s infinite normal forwards running beat-6dcda100-e9d8-4e57-97c7-fcd8ccd2dcbd;"><g transform="translate(128,128)"><g transform="matrix(0.7153 0.6988 -0.6988 0.7153 199.1367 -101.9661) translate(224.712,193.41799999999998) scale(0.3647555555555556)"><g data-icon="" transform="scale(0.9)">  <use xlink:href="#id-0.21572378261385028" x="-50" y="-50"></use>
</g></g></g></g><g data-idx="13" data-dup="" dx="-128" dy="128" style="transform-origin: -81.3772px 234.757px; animation: 1s linear 0s infinite normal forwards running beat-6dcda100-e9d8-4e57-97c7-fcd8ccd2dcbd;"><g transform="translate(-128,128)"><g transform="matrix(0.7812 0.6242 -0.6242 0.7812 76.8196 -5.7423) translate(46.602000000000004,106.7265) scale(0.3879111111111111)"><g data-icon="" transform="scale(0.9)">  <use xlink:href="#id-0.21572378261385028" x="-50" y="-50"></use>
</g></g></g></g><g data-idx="13" data-dup="" dx="128" dy="128" style="transform-origin: 174.623px 234.757px; animation: 1s linear 0s infinite normal forwards running beat-6dcda100-e9d8-4e57-97c7-fcd8ccd2dcbd;"><g transform="translate(128,128)"><g transform="matrix(0.7812 0.6242 -0.6242 0.7812 76.8196 -5.7423) translate(46.602000000000004,106.7265) scale(0.3879111111111111)"><g data-icon="" transform="scale(0.9)">  <use xlink:href="#id-0.21572378261385028" x="-50" y="-50"></use>
</g></g></g></g><g data-idx="14" data-dup="" dx="-128" dy="128" style="transform-origin: -58.7506px 357.619px; animation: 1s linear 0s infinite normal forwards running beat-6dcda100-e9d8-4e57-97c7-fcd8ccd2dcbd;"><g transform="translate(-128,128)"><g transform="matrix(0.7381 -0.6747 0.6747 0.7381 -136.8065 106.8361) translate(69.2025,229.6265) scale(0.5011777777777778)"><g data-icon="" transform="scale(0.9)">  <use xlink:href="#id-0.21572378261385028" x="-50" y="-50"></use>
</g></g></g></g><g data-idx="14" data-dup="" dx="128" dy="128" style="transform-origin: 197.249px 357.619px; animation: 1s linear 0s infinite normal forwards running beat-6dcda100-e9d8-4e57-97c7-fcd8ccd2dcbd;"><g transform="translate(128,128)"><g transform="matrix(0.7381 -0.6747 0.6747 0.7381 -136.8065 106.8361) translate(69.2025,229.6265) scale(0.5011777777777778)"><g data-icon="" transform="scale(0.9)">  <use xlink:href="#id-0.21572378261385028" x="-50" y="-50"></use>
</g></g></g></g></g><style id="beat-6dcda100-e9d8-4e57-97c7-fcd8ccd2dcbd" data-anikit="">@keyframes beat-6dcda100-e9d8-4e57-97c7-fcd8ccd2dcbd
{
  0% {
    animation-timing-function: cubic-bezier(0.1028,0.2484,0.1372,0.849);
    transform: scale(1);
  }
  34% {
    animation-timing-function: cubic-bezier(0.7116,0.2095,0.8159,0.6876);
    transform: scale(1.2);
  }
  68% {
    animation-timing-function: cubic-bezier(0.1475,0.2888,0.294,0.883);
    transform: scale(1.0268);
  }
  84% {
    animation-timing-function: cubic-bezier(0.8176,0.2193,0.867,0.6889);
    transform: scale(1.0932);
  }
  100% {
    transform: scale(1);
  }
}</style></svg>